<?xml version="1.0" encoding="UTF-8"?>
<svg version="1.1" xmlns="http://www.w3.org/2000/svg" width="200" height="142">
<path d="M0 0 C2.79563775 2.49384792 4.43253404 5.25215081 6.265625 8.50390625 C6.90056885 9.62361816 7.5355127 10.74333008 8.18969727 11.89697266 C8.52494415 12.4934259 8.86019104 13.08987915 9.20559692 13.70440674 C10.62992079 16.23841553 12.06489886 18.76633761 13.4990387 21.2947998 C14.24053345 22.60249586 14.98144351 23.91052361 15.7217865 25.21887207 C19.30012854 31.54129565 22.92620131 37.83574652 26.5625 44.125 C27.80339067 46.27343447 29.04427608 48.42187197 30.28515625 50.5703125 C30.89762207 51.63024414 31.51008789 52.69017578 32.14111328 53.78222656 C35.26324607 59.18670649 38.38136526 64.59350107 41.5 70 C42.11810547 71.07121094 42.73621094 72.14242187 43.37304688 73.24609375 C46.51222374 78.68646075 49.64999629 84.12762955 52.78515625 89.5703125 C54.04421297 91.75524168 55.30332722 93.94013771 56.5625 96.125 C57.17367676 97.185979 57.78485352 98.24695801 58.41455078 99.34008789 C61.5974116 104.85898178 64.79625898 110.36787902 68.01953125 115.86328125 C68.99007446 117.5191626 68.99007446 117.5191626 69.98022461 119.20849609 C71.2167783 121.3157837 72.45576341 123.42164697 73.69750977 125.52587891 C74.52400024 126.93426025 74.52400024 126.93426025 75.3671875 128.37109375 C75.85300293 129.19536865 76.33881836 130.01964355 76.83935547 130.86889648 C78 133 78 133 79 136 C27.19 136 -24.62 136 -78 136 C-69.49902788 120.41488444 -60.94649458 104.85331806 -51.88842773 89.58325195 C-48.14652161 83.2716483 -44.47567329 76.92007734 -40.8125 70.5625 C-40.17449463 69.45527588 -39.53648926 68.34805176 -38.87915039 67.20727539 C-37.57110523 64.93662932 -36.26324552 62.66587642 -34.95556641 60.39501953 C-31.80667949 54.92830024 -28.65320401 49.46422995 -25.5 44 C-21.95878425 37.86289106 -18.41784889 31.72562239 -14.87988281 25.5866394 C-13.50193062 23.19573403 -12.12365828 20.80501328 -10.74536133 18.41430664 C-9.77459018 16.73016037 -8.80428126 15.04574769 -7.83398438 13.36132812 C-7.24423828 12.33845703 -6.65449219 11.31558594 -6.046875 10.26171875 C-5.52963867 9.36412842 -5.01240234 8.46653809 -4.47949219 7.54174805 C-3.0082728 5.01421255 -1.51048171 2.5042345 0 0 Z " fill="#FEFBFB" transform="translate(96,3)"/>
<path d="M0 0 C2.79563775 2.49384792 4.43253404 5.25215081 6.265625 8.50390625 C6.90056885 9.62361816 7.5355127 10.74333008 8.18969727 11.89697266 C8.52494415 12.4934259 8.86019104 13.08987915 9.20559692 13.70440674 C10.62992079 16.23841553 12.06489886 18.76633761 13.4990387 21.2947998 C14.24053345 22.60249586 14.98144351 23.91052361 15.7217865 25.21887207 C19.30012854 31.54129565 22.92620131 37.83574652 26.5625 44.125 C27.80339067 46.27343447 29.04427608 48.42187197 30.28515625 50.5703125 C30.89762207 51.63024414 31.51008789 52.69017578 32.14111328 53.78222656 C35.26324607 59.18670649 38.38136526 64.59350107 41.5 70 C42.11810547 71.07121094 42.73621094 72.14242187 43.37304688 73.24609375 C46.51222374 78.68646075 49.64999629 84.12762955 52.78515625 89.5703125 C54.04421297 91.75524168 55.30332722 93.94013771 56.5625 96.125 C57.17367676 97.185979 57.78485352 98.24695801 58.41455078 99.34008789 C61.5974116 104.85898178 64.79625898 110.36787902 68.01953125 115.86328125 C68.99007446 117.5191626 68.99007446 117.5191626 69.98022461 119.20849609 C71.2167783 121.3157837 72.45576341 123.42164697 73.69750977 125.52587891 C74.52400024 126.93426025 74.52400024 126.93426025 75.3671875 128.37109375 C75.85300293 129.19536865 76.33881836 130.01964355 76.83935547 130.86889648 C78 133 78 133 79 136 C27.19 136 -24.62 136 -78 136 C-69.49902788 120.41488444 -60.94649458 104.85331806 -51.88842773 89.58325195 C-48.14652161 83.2716483 -44.47567329 76.92007734 -40.8125 70.5625 C-40.17449463 69.45527588 -39.53648926 68.34805176 -38.87915039 67.20727539 C-37.57110523 64.93662932 -36.26324552 62.66587642 -34.95556641 60.39501953 C-31.80667949 54.92830024 -28.65320401 49.46422995 -25.5 44 C-21.95878425 37.86289106 -18.41784889 31.72562239 -14.87988281 25.5866394 C-13.50193062 23.19573403 -12.12365828 20.80501328 -10.74536133 18.41430664 C-9.77459018 16.73016037 -8.80428126 15.04574769 -7.83398438 13.36132812 C-7.24423828 12.33845703 -6.65449219 11.31558594 -6.046875 10.26171875 C-5.52963867 9.36412842 -5.01240234 8.46653809 -4.47949219 7.54174805 C-3.0082728 5.01421255 -1.51048171 2.5042345 0 0 Z M0 11 C-0.40613525 11.7120459 -0.81227051 12.4240918 -1.23071289 13.15771484 C-10.49191534 29.39045455 -19.7907986 45.60059805 -29.14111328 61.78222656 C-32.26324606 67.18670647 -35.38138904 72.59348737 -38.5 78 C-39.739574 80.14844289 -40.97915735 82.29688038 -42.21875 84.4453125 C-44.48542819 88.3741425 -46.75157239 92.30327938 -49.01696777 96.23284912 C-50.02619104 97.98341241 -51.03553836 99.73390411 -52.04492188 101.484375 C-53.3016766 103.66392165 -54.55820586 105.84359832 -55.81445312 108.0234375 C-56.39130859 109.02375 -56.96816406 110.0240625 -57.5625 111.0546875 C-58.12195312 112.0250293 -58.68140625 112.99537109 -59.2578125 113.99511719 C-61.7214031 118.2442586 -64.21644012 122.47485922 -66.71484375 126.70361328 C-68.08139434 128.70684931 -68.08139434 128.70684931 -68 130 C-59.92743921 131.03885375 -55.41067137 127.72091426 -48.9375 123.1875 C-47.98294922 122.56423828 -47.02839844 121.94097656 -46.04492188 121.29882812 C-39.11907121 116.54298174 -34.98780389 111.36686701 -31 104 C-33.1028059 101.31273442 -33.1028059 101.31273442 -36 99 C-39.03996532 99.0065611 -39.03996532 99.0065611 -42 100 C-42.94875 100.185625 -43.8975 100.37125 -44.875 100.5625 C-45.57625 100.706875 -46.2775 100.85125 -47 101 C-40.78874612 95.14674346 -40.78874612 95.14674346 -37.3125 94.5 C-34.71705118 94.22125714 -34.71705118 94.22125714 -33.3125 91.4375 C-32.9928125 90.89996094 -32.673125 90.36242187 -32.34375 89.80859375 C-28.31949437 84.39222643 -21.95744211 80.55708681 -16.3125 77 C-8.06143582 71.50414983 -4.76828729 66.55654287 -2.63647461 56.80029297 C-1.18471199 50.6470352 1.62224552 46.38853297 5.390625 41.29296875 C7.1914971 39.19406167 7.1914971 39.19406167 7 37 C6.34 36.67 5.68 36.34 5 36 C6.98 35.01 8.96 34.02 11 33 C9.69132113 35.75095838 8.23408007 38.20719825 6.46875 40.6875 C1.2723217 48.19035039 -2.78485783 54.07876149 -3.54296875 63.39453125 C-4.31680733 67.80607258 -7.00387621 70.79659721 -10 74 C-9.11699219 74.25265625 -8.23398438 74.5053125 -7.32421875 74.765625 C-3.90666563 76.03465765 -1.67327106 77.51678084 1.1875 79.75 C11.58785131 87.66785337 11.58785131 87.66785337 24 90 C25.86403267 90.75215353 27.72733242 91.50636616 29.58203125 92.28125 C33.65321363 93.49142376 37.82203841 93.42100779 42.046875 93.49609375 C45.65029263 94.11096263 46.80531683 95.12724255 49 98 C49.75 101.25 49.75 101.25 50 104 C47.23735711 104.59732819 44.83967231 105 42 105 C42 106.32 42 107.64 42 109 C41.34 109 40.68 109 40 109 C40.51553879 115.49850211 41.46667709 121.66226532 43 128 C40.36 128 37.72 128 35 128 C35.99 126.515 35.99 126.515 37 125 C37 120.54404501 36.56395576 118.60625245 33.5 115.3125 C32.36140556 114.50077478 31.19106081 113.73257715 30 113 C28.95199219 112.33871094 28.95199219 112.33871094 27.8828125 111.6640625 C23.61013914 109.28159474 23.61013914 109.28159474 18.92578125 109.609375 C17.59258421 110.33228735 16.28171534 111.09786022 14.99609375 111.90234375 C11.7605048 113.68160108 8.64712776 113.73949087 5 114 C5.66 114.33 6.32 114.66 7 115 C6.67 116.98 6.34 118.96 6 121 C4.35 121 2.7 121 1 121 C1.33 118.69 1.66 116.38 2 114 C-0.7689557 111.49778976 -0.7689557 111.49778976 -4.3671875 111.03125 C-5.19476563 111.1859375 -6.02234375 111.340625 -6.875 111.5 C-11.52268661 112.15122453 -13.94446718 111.53470801 -18 109 C-18.66 109 -19.32 109 -20 109 C-19.67 106.69 -19.34 104.38 -19 102 C-19.66 102 -20.32 102 -21 102 C-21 100.35 -21 98.7 -21 97 C-21.33 97 -21.66 97 -22 97 C-22.33 101.29 -22.66 105.58 -23 110 C-24.98 110.495 -24.98 110.495 -27 111 C-27.66 109.68 -28.32 108.36 -29 107 C-29.99 107 -30.98 107 -32 107 C-33.2844099 108.84684841 -33.2844099 108.84684841 -34.5625 111.25 C-39.62807314 118.98108216 -47.71364854 123.20790251 -55.45874023 127.94360352 C-55.96735596 128.29221436 -56.47597168 128.6408252 -57 129 C-57 129.33 -57 129.66 -57 130 C-15.42 130 26.16 130 69 130 C67.76540872 126.9135218 66.68785459 124.26074518 65.109375 121.41796875 C64.73723877 120.74636719 64.36510254 120.07476562 63.98168945 119.3828125 C63.37200317 118.29613281 63.37200317 118.29613281 62.75 117.1875 C62.09680786 116.01767578 62.09680786 116.01767578 61.43041992 114.82421875 C56.62754585 106.26646158 51.66206012 97.80382282 46.703125 89.3359375 C42.96365405 82.94717998 39.25876203 76.5388322 35.5625 70.125 C34.94318604 69.05048584 34.32387207 67.97597168 33.68579102 66.86889648 C32.42659328 64.68368855 31.16756073 62.49838543 29.90869141 60.31298828 C27.97514555 56.95685919 26.04053831 53.60134452 24.10546875 50.24609375 C23.14568115 48.58187378 23.14568115 48.58187378 22.16650391 46.8840332 C20.90251419 44.69338606 19.63788005 42.50311061 18.37255859 40.31323242 C15.46262968 35.27634112 12.56080683 30.23534956 9.68359375 25.1796875 C9.17473633 24.28950928 8.66587891 23.39933105 8.14160156 22.48217773 C7.19779821 20.83052187 6.25809551 19.17651348 5.32324219 17.51977539 C3.32145932 13.62420232 3.32145932 13.62420232 0 11 Z " fill="#ED4526" transform="translate(96,3)"/>
<path d="M0 0 C0 3.3 0 6.6 0 10 C-0.33 10 -0.66 10 -1 10 C-1.495 7.525 -1.495 7.525 -2 5 C-10.14998548 16.73144119 -10.14998548 16.73144119 -13.5078125 30.42578125 C-14.34234805 34.79053464 -16.85253768 36.98938386 -20 40 C-19.28070313 40.25265625 -18.56140625 40.5053125 -17.8203125 40.765625 C-14.7753837 42.09830852 -12.50538622 43.72421001 -9.875 45.75 C0.56807019 53.65408093 0.56807019 53.65408093 13 56 C14.86560733 56.75278892 16.73041457 57.50784259 18.5859375 58.28515625 C21.64653535 59.19144979 24.50159171 59.2563375 27.6875 59.375 C31.96860743 59.62799708 33.6231042 59.74632014 37.25 62.1875 C39.1721861 65.27672765 39.91922355 67.36505974 40 71 C39.34 71.66 38.68 72.32 38 73 C34.375 72.625 34.375 72.625 31 72 C31 73.32 31 74.64 31 76 C30.34 76 29.68 76 29 76 C29.2165625 76.78503906 29.433125 77.57007812 29.65625 78.37890625 C31.1623011 84.06146019 32.40114396 89.11655525 32 95 C29.36 95 26.72 95 24 95 C24.37125 93.1746875 24.37125 93.1746875 24.75 91.3125 C25.09438123 88.25611663 25.08479324 87.18230546 23.75 84.3125 C19.5886598 80.8131912 15.32161455 78.27689226 10 77 C7.52917841 77.5870841 5.90809743 78.48036086 3.79296875 79.8671875 C1.31422533 81.43327812 -1.11906748 81.71190675 -4 82 C-3.979375 82.969375 -3.95875 83.93875 -3.9375 84.9375 C-4 88 -4 88 -5 89 C-6.66617115 89.04063832 -8.33388095 89.042721 -10 89 C-10 86 -10 86 -9.8125 83.4375 C-9.874375 82.633125 -9.93625 81.82875 -10 81 C-13.45881957 78.69412029 -13.8332459 78.91102514 -17.6875 79.625 C-23.32862931 80.3622401 -26.21091944 78.92666034 -31 76 C-30.979375 75.030625 -30.95875 74.06125 -30.9375 73.0625 C-30.64381501 70.12534105 -30.64381501 70.12534105 -32 69 C-32.33 71.64 -32.66 74.28 -33 77 C-35.475 77.495 -35.475 77.495 -38 78 C-38.8353125 76.6696875 -38.8353125 76.6696875 -39.6875 75.3125 C-41.84616993 72.1313022 -43.94903395 69.39718761 -47 67 C-50.03996532 67.0065611 -50.03996532 67.0065611 -53 68 C-55.75 68.6875 -55.75 68.6875 -58 69 C-58.66 68.34 -59.32 67.68 -60 67 C-59.071875 66.566875 -58.14375 66.13375 -57.1875 65.6875 C-54.06964073 64.2617267 -54.06964073 64.2617267 -52.4375 62.3125 C-51 61 -51 61 -48.3125 60.8125 C-47.1678125 60.9053125 -47.1678125 60.9053125 -46 61 C-45.7628125 60.26652344 -45.525625 59.53304687 -45.28125 58.77734375 C-42.19082134 52.07827431 -35.09404763 47.45824492 -28.8125 43.9375 C-22.61333025 40.33672636 -18.10777354 36.71709951 -16 29.64453125 C-15.40792804 27.0938641 -14.82216578 24.54172545 -14.2421875 21.98828125 C-12.41301274 15.22633193 -8.04663924 9.61168561 -4 4 C-5.65 4 -7.3 4 -9 4 C-3 0 -3 0 0 0 Z " fill="#F53F1D" transform="translate(107,36)"/>
<path d="M0 0 C2.79563775 2.49384792 4.43253404 5.25215081 6.265625 8.50390625 C6.90056885 9.62361816 7.5355127 10.74333008 8.18969727 11.89697266 C8.52494415 12.4934259 8.86019104 13.08987915 9.20559692 13.70440674 C10.62992079 16.23841553 12.06489886 18.76633761 13.4990387 21.2947998 C14.24053345 22.60249586 14.98144351 23.91052361 15.7217865 25.21887207 C19.30012854 31.54129565 22.92620131 37.83574652 26.5625 44.125 C27.80339067 46.27343447 29.04427608 48.42187197 30.28515625 50.5703125 C30.89762207 51.63024414 31.51008789 52.69017578 32.14111328 53.78222656 C35.26324607 59.18670649 38.38136526 64.59350107 41.5 70 C42.11810547 71.07121094 42.73621094 72.14242187 43.37304688 73.24609375 C46.51222374 78.68646075 49.64999629 84.12762955 52.78515625 89.5703125 C54.04421297 91.75524168 55.30332722 93.94013771 56.5625 96.125 C57.17367676 97.185979 57.78485352 98.24695801 58.41455078 99.34008789 C61.5974116 104.85898178 64.79625898 110.36787902 68.01953125 115.86328125 C68.99007446 117.5191626 68.99007446 117.5191626 69.98022461 119.20849609 C71.2167783 121.3157837 72.45576341 123.42164697 73.69750977 125.52587891 C74.52400024 126.93426025 74.52400024 126.93426025 75.3671875 128.37109375 C75.85300293 129.19536865 76.33881836 130.01964355 76.83935547 130.86889648 C78 133 78 133 79 136 C27.19 136 -24.62 136 -78 136 C-69.49902788 120.41488444 -60.94649458 104.85331806 -51.88842773 89.58325195 C-48.14652161 83.2716483 -44.47567329 76.92007734 -40.8125 70.5625 C-40.17449463 69.45527588 -39.53648926 68.34805176 -38.87915039 67.20727539 C-37.57110523 64.93662932 -36.26324552 62.66587642 -34.95556641 60.39501953 C-31.80667949 54.92830024 -28.65320401 49.46422995 -25.5 44 C-21.95878425 37.86289106 -18.41784889 31.72562239 -14.87988281 25.5866394 C-13.50193062 23.19573403 -12.12365828 20.80501328 -10.74536133 18.41430664 C-9.77459018 16.73016037 -8.80428126 15.04574769 -7.83398438 13.36132812 C-7.24423828 12.33845703 -6.65449219 11.31558594 -6.046875 10.26171875 C-5.52963867 9.36412842 -5.01240234 8.46653809 -4.47949219 7.54174805 C-3.0082728 5.01421255 -1.51048171 2.5042345 0 0 Z M0 5 C-7.78063587 18.14469778 -15.42193456 31.36809058 -23.04443359 44.60498047 C-26.19332054 50.0716998 -29.34683264 55.53574887 -32.5 61 C-33.7500235 63.16665311 -35.00002347 65.33331979 -36.25 67.5 C-38.75 71.83333333 -41.25 76.16666667 -43.75 80.5 C-44.36963623 81.57411133 -44.98927246 82.64822266 -45.62768555 83.75488281 C-46.86847033 85.90542543 -48.10951535 88.05581792 -49.35083008 90.20605469 C-52.27019474 95.26377813 -55.18696209 100.32294493 -58.09432983 105.38757324 C-59.46174766 107.76923502 -60.83067039 110.1500302 -62.19970703 112.53076172 C-63.16064553 114.20326021 -64.11941672 115.87700336 -65.078125 117.55078125 C-69.92558115 125.97789732 -69.92558115 125.97789732 -72.42578125 129.609375 C-74.18332245 131.80133108 -74.18332245 131.80133108 -74 134 C-24.5 134 25 134 76 134 C71.17815159 125.56176528 66.34763551 117.1359313 61.4375 108.75 C54.5437275 96.95322007 47.71108021 85.12178761 40.89111328 73.28222656 C37.76319853 67.8534006 34.63143954 62.42679331 31.5 57 C27.99355517 50.92283836 24.48725299 44.84559527 20.98303223 38.76715088 C19.97380896 37.01658759 18.96446164 35.26609589 17.95507812 33.515625 C16.6983234 31.33607835 15.44179414 29.15640168 14.18554688 26.9765625 C13.03701982 24.98492676 11.8866836 22.99433303 10.734375 21.00488281 C9.50725085 18.87883494 8.28939956 16.74742229 7.078125 14.61230469 C6.45421875 13.52079102 5.8303125 12.42927734 5.1875 11.3046875 C4.62417969 10.31194824 4.06085938 9.31920898 3.48046875 8.29638672 C2.20536391 5.89042314 2.20536391 5.89042314 0 5 Z " fill="#0E0B0A" transform="translate(96,3)"/>
<path d="M0 0 C2.79563775 2.49384792 4.43253404 5.25215081 6.265625 8.50390625 C6.90056885 9.62361816 7.5355127 10.74333008 8.18969727 11.89697266 C8.52494415 12.4934259 8.86019104 13.08987915 9.20559692 13.70440674 C10.62992079 16.23841553 12.06489886 18.76633761 13.4990387 21.2947998 C14.24053345 22.60249586 14.98144351 23.91052361 15.7217865 25.21887207 C19.30012854 31.54129565 22.92620131 37.83574652 26.5625 44.125 C27.80339067 46.27343447 29.04427608 48.42187197 30.28515625 50.5703125 C30.89762207 51.63024414 31.51008789 52.69017578 32.14111328 53.78222656 C35.26324606 59.18670646 38.38140055 64.59348074 41.5 70 C42.74477759 72.15756021 43.98956926 74.31511228 45.234375 76.47265625 C47.78685335 80.89690769 50.33888455 85.32141668 52.890625 89.74609375 C53.53128906 90.85645996 54.17195313 91.96682617 54.83203125 93.11083984 C56.09663769 95.30426237 57.35969481 97.49857898 58.62109375 99.69384766 C61.51527608 104.72549781 64.43115811 109.73986783 67.421875 114.71484375 C67.94426758 115.59148682 68.46666016 116.46812988 69.00488281 117.37133789 C69.97306895 118.9926228 70.95100074 120.60814374 71.94042969 122.21655273 C72.36227539 122.92626221 72.78412109 123.63597168 73.21875 124.3671875 C73.58935547 124.97675293 73.95996094 125.58631836 74.34179688 126.21435547 C75.17991506 128.488093 74.776508 129.74800276 74 132 C64.91068056 116.45766641 55.87818423 100.88391147 46.89111328 85.28222656 C43.7631985 79.85340055 40.63138034 74.42682751 37.5 69 C36.25390161 66.83984643 35.00780786 64.67969017 33.76171875 62.51953125 C31.22384007 58.12040925 28.68463417 53.72205679 26.14453125 49.32421875 C25.5093457 48.22408447 24.87416016 47.1239502 24.21972656 45.99047852 C22.96047604 43.8096797 21.70072045 41.62917244 20.44042969 39.44897461 C17.43634419 34.24674865 14.44860787 29.03637919 11.49609375 23.8046875 C10.94719482 22.83442627 10.3982959 21.86416504 9.83276367 20.86450195 C8.8065264 19.04773113 7.78430015 17.22868646 6.7668457 15.40698242 C6.31269287 14.60365479 5.85854004 13.80032715 5.390625 12.97265625 C4.99907227 12.27406494 4.60751953 11.57547363 4.20410156 10.85571289 C2.97931391 8.96811944 1.64625203 7.52572924 0 6 C-0.5576001 7.00244751 -0.5576001 7.00244751 -1.12646484 8.02514648 C-8.25122945 20.8222776 -15.4246632 33.57760407 -22.91259766 46.16601562 C-25.63682163 50.76062059 -28.31356307 55.3832425 -31 60 C-31.66 59.01 -32.32 58.02 -33 57 C-32.08203125 55.40885417 -31.1640625 53.81770833 -30.24609375 52.2265625 C-29.64571289 51.18588623 -29.04533203 50.14520996 -28.42675781 49.07299805 C-27.08892341 46.75411792 -25.75104148 44.4352653 -24.41308594 42.11645508 C-21.21162719 36.56785387 -18.01056425 31.01902665 -14.81190491 25.46881104 C-13.78367401 23.68469579 -12.75526684 21.90068228 -11.72680664 20.11669922 C-10.43006902 17.86722699 -9.13367064 15.61755915 -7.83764648 13.36767578 C-7.24669189 12.34270996 -6.6557373 11.31774414 -6.046875 10.26171875 C-5.52963867 9.36412842 -5.01240234 8.46653809 -4.47949219 7.54174805 C-3.0082728 5.01421255 -1.51048171 2.5042345 0 0 Z " fill="#140C0A" transform="translate(96,3)"/>
<path d="M0 0 C0 3.3 0 6.6 0 10 C-0.33 10 -0.66 10 -1 10 C-1.495 7.525 -1.495 7.525 -2 5 C-10.14998548 16.73144119 -10.14998548 16.73144119 -13.5078125 30.42578125 C-14.34234805 34.79053464 -16.85253768 36.98938386 -20 40 C-18.92105469 40.37898438 -18.92105469 40.37898438 -17.8203125 40.765625 C-14.7753837 42.09830852 -12.50538622 43.72421001 -9.875 45.75 C0.56807019 53.65408093 0.56807019 53.65408093 13 56 C14.86560733 56.75278892 16.73041457 57.50784259 18.5859375 58.28515625 C21.64653535 59.19144979 24.50159171 59.2563375 27.6875 59.375 C31.96860743 59.62799708 33.6231042 59.74632014 37.25 62.1875 C39.1721861 65.27672765 39.91922355 67.36505974 40 71 C39.34 71.66 38.68 72.32 38 73 C34.375 72.625 34.375 72.625 31 72 C31 73.32 31 74.64 31 76 C30.34 76 29.68 76 29 76 C29.2165625 76.78503906 29.433125 77.57007812 29.65625 78.37890625 C31.1623011 84.06146019 32.40114396 89.11655525 32 95 C30.09387829 91.56898092 29.09714701 88.08958485 28.0625 84.3125 C25.22883622 73.89401082 25.22883622 73.89401082 21 64 C24 65 24 65 25.125 66.6875 C26.164053 69.43356865 26.60411942 72.09687572 27 75 C27.33 73.35 27.66 71.7 28 70 C33.75 68.875 33.75 68.875 36 70 C35.67 69.01 35.34 68.02 35 67 C35.66 67 36.32 67 37 67 C35.84070734 64.92969825 35.84070734 64.92969825 34 63 C31.57576931 62.4101841 31.57576931 62.4101841 28.875 62.4375 C24.21445016 62.19123581 20.4833352 61.36560359 16.16796875 59.62109375 C13.92556883 58.8533385 13.92556883 58.8533385 11.1953125 59.1328125 C7.09126043 58.96222843 4.18980537 57.40457891 0.6875 55.4375 C0.02669434 55.08051025 -0.63411133 54.72352051 -1.31494141 54.35571289 C-5.19102459 52.20597241 -8.52707501 49.86619629 -11.875 46.9375 C-14.78382397 44.57679398 -16.5845746 43.48486103 -20.375 43.625 C-29.07791629 45.43557174 -36.65963902 52.07314082 -43 58 C-43.33 58.66 -43.66 59.32 -44 60 C-44.66 59.67 -45.32 59.34 -46 59 C-40.86699994 52.21119347 -34.4618836 47.53316734 -27.3125 43 C-19.39619277 37.69028174 -16.83821626 33.39150096 -14.75756836 23.99609375 C-12.89120398 16.32948259 -8.56088975 10.3248236 -4 4 C-5.65 4 -7.3 4 -9 4 C-3 0 -3 0 0 0 Z " fill="#5D3A33" transform="translate(107,36)"/>
<path d="M0 0 C2.2477975 2.05233685 3.0022242 3.00667261 4 6 C-47.81 6 -99.62 6 -153 6 C-152.34 4.68 -151.68 3.36 -151 2 C-150.67 2.66 -150.34 3.32 -150 4 C-100.5 4 -51 4 0 4 C0 2.68 0 1.36 0 0 Z " fill="#000000" transform="translate(171,133)"/>
<path d="M0 0 C0 3.3 0 6.6 0 10 C-0.33 10 -0.66 10 -1 10 C-1.33 8.35 -1.66 6.7 -2 5 C-10.12549614 16.70994593 -10.12549614 16.70994593 -13.5234375 30.36328125 C-14.31088506 34.72006077 -16.68607589 38.10626244 -20 41 C-22.1953125 41.70703125 -22.1953125 41.70703125 -24 42 C-23.38511719 41.22076172 -23.38511719 41.22076172 -22.7578125 40.42578125 C-22.21898438 39.72839844 -21.68015625 39.03101563 -21.125 38.3125 C-20.32449219 37.28576172 -20.32449219 37.28576172 -19.5078125 36.23828125 C-16.91577143 32.39051044 -15.87195845 28.55482248 -14.9375 24.0625 C-12.96271136 16.45436692 -8.43600571 10.37036459 -4 4 C-5.65 4 -7.3 4 -9 4 C-3 0 -3 0 0 0 Z " fill="#FF6F55" transform="translate(107,36)"/>
<path d="M0 0 C3 1 3 1 4.125 2.6875 C5.164053 5.43356865 5.60411942 8.09687572 6 11 C6.33 9.35 6.66 7.7 7 6 C12.75 4.875 12.75 4.875 15 6 C14.67 5.01 14.34 4.02 14 3 C14.99 3 15.98 3 17 3 C17 4.98 17 6.96 17 9 C14.69 8.67 12.38 8.34 10 8 C10 9.32 10 10.64 10 12 C9.34 12 8.68 12 8 12 C8.2165625 12.78503906 8.433125 13.57007812 8.65625 14.37890625 C10.1623011 20.06146019 11.40114396 25.11655525 11 31 C9.09387829 27.56898092 8.09714701 24.08958485 7.0625 20.3125 C4.22883622 9.89401082 4.22883622 9.89401082 0 0 Z " fill="#904537" transform="translate(128,100)"/>
<path d="M0 0 C3.3 0 6.6 0 10 0 C10.66 1.65 11.32 3.3 12 5 C9.36 5 6.72 5 4 5 C4 6.98 4 8.96 4 11 C3.34 10.67 2.68 10.34 2 10 C1.3671875 7.71484375 1.3671875 7.71484375 0.875 4.9375 C0.70742187 4.01839844 0.53984375 3.09929687 0.3671875 2.15234375 C0.24601563 1.44207031 0.12484375 0.73179688 0 0 Z " fill="#FBEAE7" transform="translate(131,101)"/>
<path d="M0 0 C0 0.66 0 1.32 0 2 C-1.01707031 2.20302734 -1.01707031 2.20302734 -2.0546875 2.41015625 C-9.64521998 4.16586113 -14.93605813 7.17640987 -21 12 C-21.63421875 12.49371094 -22.2684375 12.98742187 -22.921875 13.49609375 C-25.90685303 15.86856505 -25.90685303 15.86856505 -28 19 C-28.66 18.67 -29.32 18.34 -30 18 C-24.20917174 10.34116263 -15.7324183 2.87881441 -6.3125 0.25 C-4 0 -4 0 0 0 Z " fill="#4F312C" transform="translate(91,77)"/>
<path d="M0 0 C2.475 0.99 2.475 0.99 5 2 C5.04254356 3.99954746 5.04080783 6.00041636 5 8 C4 9 4 9 1.4375 9.0625 C0.633125 9.041875 -0.17125 9.02125 -1 9 C-1 8.01 -1 7.02 -1 6 C-1.0309375 4.700625 -1.0309375 4.700625 -1.0625 3.375 C-1 1 -1 1 0 0 Z " fill="#E64D30" transform="translate(98,116)"/>
<path d="M0 0 C8.88156226 -0.77605884 8.88156226 -0.77605884 13.0625 2.125 C15.14419243 5.21396297 15.74277844 7.31315759 16 11 C15.01 11.495 15.01 11.495 14 12 C13.731875 10.906875 13.46375 9.81375 13.1875 8.6875 C11.91438298 4.66124633 11.91438298 4.66124633 9 2 C6.72838745 1.42676193 6.72838745 1.42676193 4.3125 1.3125 C3.10013672 1.21388672 3.10013672 1.21388672 1.86328125 1.11328125 C0.94095703 1.05720703 0.94095703 1.05720703 0 1 C0 0.67 0 0.34 0 0 Z " fill="#525150" transform="translate(131,96)"/>
<path d="M0 0 C0.99 0 1.98 0 3 0 C5.60250805 3.37362154 6.36265043 5.76907828 6 10 C3.47650757 6.87567603 1.72743854 3.61939504 0 0 Z " fill="#1F0F0C" transform="translate(142,86)"/>
<path d="M0 0 C0 4.07746885 -1.52068051 5.83198065 -4 9 C-6.140625 9.6796875 -6.140625 9.6796875 -8 10 C-7.04367001 8.70684939 -6.08486149 7.41553147 -5.125 6.125 C-4.59132813 5.40570313 -4.05765625 4.68640625 -3.5078125 3.9453125 C-2 2 -2 2 0 0 Z " fill="#F16045" transform="translate(91,68)"/>
<path d="M0 0 C0 3.3 0 6.6 0 10 C-0.33 10 -0.66 10 -1 10 C-1.144375 9.21625 -1.28875 8.4325 -1.4375 7.625 C-1.87798925 5.03578982 -1.87798925 5.03578982 -3 3 C-3.66 2.67 -4.32 2.34 -5 2 C-2 0 -2 0 0 0 Z " fill="#FF502F" transform="translate(107,36)"/>
</svg>
